<svg xmlns="http://www.w3.org/2000/svg" xmlns:xlink="http://www.w3.org/1999/xlink" width="30" height="30" viewBox="0 0 30 30">
  <defs>
    <clipPath id="clip-path">
      <rect id="Rectangle_2030" data-name="Rectangle 2030" width="30" height="30" transform="translate(1263.083 108)" fill="#fff" stroke="#707070" stroke-width="1"/>
    </clipPath>
  </defs>
  <g id="Mask_Group_71" data-name="Mask Group 71" transform="translate(-1263.083 -108)" clip-path="url(#clip-path)">
    <path id="cancel" d="M20.984,10.294l-4.31,4.169,4.31,4.169a1.11,1.11,0,0,1,0,1.607,1.2,1.2,0,0,1-1.662,0l-4.31-4.169L10.7,20.239a1.2,1.2,0,0,1-1.662,0,1.11,1.11,0,0,1,0-1.607l4.31-4.169L9.04,10.294a1.11,1.11,0,0,1,0-1.607,1.2,1.2,0,0,1,1.662,0l4.31,4.169,4.31-4.169a1.2,1.2,0,0,1,1.662,0,1.11,1.11,0,0,1,0,1.607Zm4.693-6.033A15.2,15.2,0,0,0,15.041,0,15.2,15.2,0,0,0,4.405,4.261a14.214,14.214,0,0,0,0,20.575A15.2,15.2,0,0,0,15.041,29.1,15.4,15.4,0,0,0,22.824,27a1.115,1.115,0,0,0,.4-1.561,1.2,1.2,0,0,0-1.614-.383,12.994,12.994,0,0,1-6.565,1.768A12.5,12.5,0,0,1,2.35,14.549,12.5,12.5,0,0,1,15.041,2.273,12.5,12.5,0,0,1,27.732,14.549a11.945,11.945,0,0,1-2.152,6.813,1.114,1.114,0,0,0,.324,1.577,1.2,1.2,0,0,0,1.63-.313A14.154,14.154,0,0,0,25.677,4.261Zm0,0" transform="translate(1263 108)" fill="#fff"/>
  </g>
</svg>
