<svg width="9" height="10" viewBox="0 0 9 10" fill="none" xmlns="http://www.w3.org/2000/svg">
<path d="M8.60156 1.87891C8.95703 1.55078 8.95703 0.976562 8.60156 0.648438C8.27344 0.292969 7.69922 0.292969 7.37109 0.648438L4.5 3.51953L1.60156 0.648438C1.27344 0.292969 0.699219 0.292969 0.371094 0.648438C0.015625 0.976562 0.015625 1.55078 0.371094 1.87891L3.24219 4.75L0.371094 7.64844C0.015625 7.97656 0.015625 8.55078 0.371094 8.87891C0.699219 9.23438 1.27344 9.23438 1.60156 8.87891L4.5 6.00781L7.37109 8.87891C7.69922 9.23438 8.27344 9.23438 8.60156 8.87891C8.95703 8.55078 8.95703 7.97656 8.60156 7.64844L5.73047 4.75L8.60156 1.87891Z" fill="#6B6B6B"/>
</svg>
